<mxfile host="65bd71144e">
    <diagram id="1mEu6ecAH5nAXkqG5jpl" name="第 1 页">
        <mxGraphModel dx="607" dy="457" grid="1" gridSize="10" guides="1" tooltips="1" connect="1" arrows="1" fold="1" page="1" pageScale="1" pageWidth="827" pageHeight="1169" math="0" shadow="0">
            <root>
                <mxCell id="0"/>
                <mxCell id="1" parent="0"/>
                <mxCell id="2" value="&lt;div style=&quot;&quot;&gt;&lt;span style=&quot;background-color: transparent;&quot;&gt;2.1 information storage&lt;/span&gt;&lt;/div&gt;&lt;div&gt;&lt;ul&gt;&lt;li&gt;字节序&lt;/li&gt;&lt;li&gt;bit operation&lt;/li&gt;&lt;li&gt;logical operation&lt;/li&gt;&lt;li&gt;shift operation&lt;/li&gt;&lt;ul&gt;&lt;li&gt;&amp;lt;&amp;lt; 右侧补零&lt;/li&gt;&lt;li&gt;&amp;gt;&amp;gt; 无符号逻辑，左侧补零&lt;/li&gt;&lt;li&gt;&amp;gt;&amp;gt; 有符号算数右移，左侧补最高位&lt;/li&gt;&lt;/ul&gt;&lt;/ul&gt;&lt;/div&gt;" style="text;html=1;align=left;verticalAlign=middle;resizable=0;points=[];autosize=1;strokeColor=none;fillColor=none;" vertex="1" parent="1">
                    <mxGeometry x="240" y="30" width="290" height="190" as="geometry"/>
                </mxCell>
                <mxCell id="6" value="" style="shape=image;imageAspect=0;aspect=fixed;verticalLabelPosition=bottom;verticalAlign=top;image=data:image/png,iVBORw0KGgoAAAANSUhEUgAAA0wAAAE9CAYAAAA4fOL6AAAABHNCSVQICAgIfAhkiAAAABl0RVh0U29mdHdhcmUAZ25vbWUtc2NyZWVuc2hvdO8Dvz4AAAA9aVRYdENyZWF0aW9uIFRpbWUAAAAAADIwMjXlubQwM+aciDIw5pelIOaYn+acn+WbmyAxMOaXtjE25YiGMTfnp5KcRNOUAAAgAElEQVR4nOzdZ3gUVRvG8f9uGpBGEhIgtBB6L0GaIF0EAVEBUVFUwIa9oFhewQKIihVREaSKiGADpNdQIr2FEjoJJYX0ttndeT+ACiFLAgRSuH/X5Qcz7ZmZnWXuPWfOmAzDMBAREREREZFLmAu6ABERERERkcJKgUlERERERMQBBSYREREREREHFJhEREREREQcUGASERERERFxQIFJRERERETEAQUmERERERERBxSYREREREREHFBgEhERERERcUCBSURERERExAEFJhEREREREQcUmERERERERBxQYBIREREREXFAgUlERERERMQBBSYREREREREHFJhEREREREQcUGASERERERFxQIFJRERERETEAQUmERERERERBxSYREREREREHFBgEhERERERcUCBSURERERExAEFJhEREREREQecC3Trqac5eCIeq5HTRBNmF3d8ypXH3yPnMq3xxzl0OhWTR3mqVSqN03UtthBIj+bwsTiynLypUCMQD27CYyAiIiIicgOZDMPIMa7cCJlr36TTwB85bb/MTM6eVGh8Ow+9NIxHWwdcEAjsnJz0AJ3eC8N02wesnfYAfte/5AJl2fIB3ft9zzHfvny3diwdStx8x0BERERE5EYq2Bamf5hKUqZKebwuaB4x7FmkxZ0hJimZqM1zGfPINo5+/RPvdvZXP0IREREREbkhCkdgcm7A4zNm8VjF7FEok5Nhs/jw9dEsOHKYX8b+QN/bhtHIFcCMX7c3mVw7CUpXx7sAyi54OgYiIiIiItdT4QhMDrkR2OIR3h+2nQ1P/87ZwxvZeNJGo6BzTVFugQ1oFVjAJRYwHQMRERERkeunkAemc0oGBuLnBGexkJHx3yNXSZtn8f3y41C1K0/1a0zJCxdKO8TSqT8wb+UOjsam4xpQixZ3DeKJfjU5Nudblh93o8E9T3JH9bwegkwi1//C7Hkr2LQ/irPpZrzK16R5twcY2K85ZS9cjT2WDTOmEHrGi5D+g7iVUGZ8O4PFmw+TaPambNUQug14hHtaVcDtku3Yids+j6nT57NhbyQJVg8qNGxPv8cH0ymHqi53DCwnw5g3cy4rt+zjeHQyFrM75as3pVXnu+jTOyQfaxYRERERKZ6KQGCyczZ8L6esYA6oQ/1Kzv/+PWXH70ycEIbptkoMvCAs2E4uZsSjLzFrf9p/qzl8iD0bV7B621t0Pf4t34aVpk+zIXkLTNZIFv7vcd6ctZfkC4fIOLiX7WsXMO+vYXz/7RDqlzr/dyOerb98y7d7KtA/wMrUr8axLsb272KHwrexfuEv/DlsGj881eCCAJLO/mnPM/i9pZzK+m8zRw7sYN3SdQx9vuYlx8bRMUjZ8gVDBn/Opng7OLnh6e2OKe0Exw7uYeOimUyd+woTJz1Fo2uuWURERESk+Crc4ydYYtm74BNeGreGFJMnzQY9Slv3XJaxHeOn4a/x0/40XCq0Z+jnc1gSton1y2fz0ZBGJM57j8nbsnJZyYUy2fXlUIb9uJdk5/K0HfoJ0xdvIOzvZfz48ZO0Kguxa8fy8rgw0rIvajvFb6M/ZZtHJ54bP48Vm7YSumgyr91RGRcjgb/Hf8KvZ/4bIjB9y5e88sFSTlndqXX3W3z75xo2bA5lwZQR3FNxPxM+nMtJW/aN5MC6j6kjx7Mp3pmg3qOYF7aTbVu3sDV8K0u+f5aWvgZnN3zFJ79EcskAhVdYs4iIiIhIcVY4WpiytvPl3a343nTB3wwLqQmJpGYZ4FyWdsMnMG5wXVxzWVXm1mn8EJqI4daQp7/7hmfrnW8LKVuGu9/8nnKWXjw69QiYLr+ef9ijf+OLH3aSYS5L949+5tPeFf8d2tyvz2t8V92J+/qNJ3z2RBY+cQt9/C/MoBYyS3Vm1PSv6Vvx/FL+HRgyJoVdYc+zMH4rGzZl0r9HSbDHsWTij+zLNOHb5R0mftKXwPOr8m8/kNE13UnqOYylmbmXbj8VytpwCya/Xrw88n4a/jMahNmL4M7P8NK9C7h/4hEidkeQRcVsrUVXULOIiIiISDFXSFqYLCTHRBMdfcF/MQnnwhKA9QzrJozgo3n7Sb3seqwcWBVKpA3cbulLvzrZO4550PyhPtTLc0y0E7t0IRuSwLnBAJ7rWfGSF8OWbNif3k1cIPlvloemZJtqply3gfSqmG0pzzrUquwEZBAXl3zubxmbWL0xCcNUhvb97vw3LP27psCeDLijfN5OmFdbnvlyPF99+RxtLxk6zyAz04IBWCyWHBa+gppFRERERIq5wtHC5NKcN1ZmG1bcbiHlbDTHdq7hr58mMW3JTn4aNpAUtz8Y1zPAQXCwcOTQCaw4UaFmTXxymMmpUmMalDOzIyovhWWxd8c+LJgo7e9K1MZ1RF8yjxWbhycmEjkUfhDubnrh1giuUxuX7IuYvCnteb6dyG4FwHbyEMdSDHCqQs3aOT0h5EaDJnVxm3mSjFyqNnvXok23WgBkxh5ix4HDnDgRRVTUSSIPbmXV8kjsDtup8l6ziIiIiEhxVzgCU07MrniUqUi9jg9Qr/1tVBx0J2+vPMPiH+ZyrPtTVM3e1ANAJmnpNsCEu4dHzqHKyQ+/0mbIY2CKjUvAjsHZZaMZtOxy85o4GxOTfWOU8nC/tA6zCVO2vGKkpZMOYC6Fh2eOO4ebry8eJnINTGAjdsMkxnw4mb92nCHzwoEqXHwI9PXAdMZRW13eaxYRERERKe4Kb2C6kDmQLp0aMnJlKNbDB4jIwkFgKoGHuwuQQVaW5dIBDQBMbrjm9iDUv+zY7QAmvELuZ1CnS7vkXcg5ODivK760LC933AGMLCyZdnLsLenmgnMeQkvm9i8ZPOhzdqc54VX9Nu7scAv1alQlKLg6teoEEf11L/qNj7jqWkVEREREbhZFIzABWVnnu4E5OV0mtLhQNbgSzuzj1JHjZNL40kEibGeIjjNyWjgHbvj7l8ZEDEb51jz69J2Uyn2hq+JUthpVPE1sS4ri6FErlL001VmiY0jOdYC6VFb9MJ09aSZ8u3zA3An3Uemis2zhtM1OXo+AiIiIiMjNrJAM+pAL6xEWLN5FFuBaqwF1HLYQOVO9dXPKmSF18zLWJlw6R2b4KtZH5WVsbgAXGtzSEHcMUretZ+sl44YD9khmDmpBs8YtGTone5e8K+AWQqsQd7BFsW7ZbjIvmSGB0FVbcxn0ArCd5vCxJAycqdm6LRWyR2J7PPv2nyavR0BERERE5GZWuAOTJYnIrfP5cuhgxm1MBadA7nykF+UuU7Vb8/u4p64rRuxiPhu7jOgLkoEtej1fjpzJwTyPWWDG7/Z+dC1nxh41j4/GhRJ7UQtPKnunj2D8ymgSzU25vb3fle/jv5vyo8v93SlvtnF49mi+25Z0wcRMjv3+Pp8sjM29ZcjkiZeHGbBxZMcOEi+cZotjy3fD+Hz1+dH8DLUziYiIiIhcTuHokpe1iTHtavLhRX80sF/YdczZn5bPf8Zbt/tcPuU51+Wxdwax4uEJ7P7xaXrv6ULXW6viFh/B+sUrCE9yw6OEiZRLm3By5t2Jl9+5l83Pz2HP949y54YOdG5dCz9iOLQ1lDVbokh3Ksvtbwynh/+15U+vDi/yeq91vPzbZr54sCdh3TrTpKzBmV2rWBJ6FFPd+lTZt5vjl1uJuQwderRh3LoVnPljOA9bttC1oR/W2CPsXLWIdYedqR9Sg8RNEaRsnsXYcenc/czd1L/cw1kiIiIiIjepwhGYMLDbLu0kZnYphVeZStRp1p6eAx/l7mZlc31xLYDHLS8zcVIp/vfWd6zYsZDpO86vz7MGvf73CO7f/49ZkWbMeRr1zUxAt1FMdS3HyPcns3rPUmbvWfrvVNeAZjz0xmiG9a502QEh8sRcjjs/nAY+bzB61t9snDuZjQA44xcymPf/V46pfXIJTJgJ7DeKcceeZ/ikMPYunMTeheemuJVrwYPj3uWllvt4++6X+TNqDVO/caXekwpMIiIiIiI5MRlGMe6XZU/i+I4d7DsWi8W9AnWbhxDstorX2w7hl7PBDPllIa81yfOQeWBPJXLnZvYcjSHZ5oZv5To0algdv5xem3SNrLERbNt5gKgEO15BTWjZuCKlrrABKz36AOG793M8Hrwq1yOkSTClnf/ZlSj27T1Jlm8wdYL98hRERURERERuNsUuMFkjFjF5wT4yfUPo+2BbymVrObHu+ZS77/qCvSVv55PQb7nLu2DqFBERERGRwq+QdMnLPyanYyyf8DlbbNWIrTSL/3Xw/6+rXGo4U8fMYJ/VhG/7nrRTWBIRERERkcsodi1M2ONZNrw3z8w+jtWlLA07d6J5kAeWuKPsWruG7acyMJe9g9G/fMU9lfTgjoiIiIiIOFb8AhNAxmH++nw0X/28hv1xlv/+7lqGuh3v55nXh3J70HV48EhERERERIqV4hmY/mFN4Nie/UQl23B2L0OVmtUo665WJRERERERyZviHZhERERERESuwbW9aVVERERERKQYU2ASERERERFxQIFJRERERETEAQUmERERERERBxSYREREREREHHAu6AJEJDcpHFwynalz17I/1oR/3Xb0eXQAHYJLXbctWiNm8trIcNqNeZdeFXMbiv/q6kuJWMKMKXMJ3ReHyb8ut/V7hAc7BnP99uoGSTnI0mk/MG/tfuJM/tRt35eBAzpS9brtmJWIGa/yfnh7Rr13FxVyPV3XUJ81gh9feZfw9qMZ2bsixeElDTf8c3iFx/BK68s8uZHfZv3Kqq2Hiclwxb9yMMF1W9Dt7juoX6aI/5Nf3K4tWwLhi+fw+4rN7D0WTVKmGY+AIOq36kafvp2p7pXf+yMiV0vDiosUZvbTLB0xiFenh5Pi7EOFAIPoqASsXg147LNJvNbRP/+biW0n+GlwT95e7cH905fz7q2XecnzVdVn5/SSkTz+8nTCk53xqRiAcSaKBKsX9Qd/xsThHfAvom3f9tNLeG/QK8zYk4yzTwX8jWhOJljxajCIcZOG0z4g/3fMduJHHu/xFms9HmDKivdpfdnTdS312Tjx42B6v7kG9wensfT9Wynar/8uiM/hlRzDK63PRtRfI3j6tZnsSXLGq0IVypfMICbqNGfTrTj5NGbAqC8Z3q1ikfyltNhdWxnhTHnyMcasOoPV2YOylSrhXzKTuMhITiVZcKvUjbe+/5T7axXtq0yk2DBEpJDKMvZ/e5/ROKia0erR742tMZmGYWQa0WHjjYeaBhvVGw0wph605u8mrTHG+o/7GiFBQUa1qrcab4dm5Ht9Wfu+M+5vUNWoectjxqQtMUamYRiZZ8KMrx8IMWoENTYennLQyOe9ujGy9hkT+zUwqgc3NwZP3GrEZhqGkRlt/P3Vg8YtVasaIQ9OMQ7l++laZ4zr09ioXiXIqNH6TWPdZU/XtdRnNWLXfWLc16iqUa1KsNH2zVDjcpsqCm785/DKjuGV1pe1/xvjvrpBRo2m/Y1xy48baf9MyIw2tv/8tnFPo6pGtVo9jE+2pF26scKu2F1bNiP25yFGoypBRp07Rxnrz2T+NynjlBE28XGjXbUgo17v8cb+rPzdLxG5OgpMIoWU7dTPxhONqhp1uo8xNidfNMVIWDfC6Fot2Gj+9O9GjC0fNmY9ZPzx7uPGfe0bGDWrVDfq1aqRa2C6qvpsp4w5gxsb1Wt2N8ZuSr54fQnrjJGdqhs1QoYaf0Tnx07dSDbj1OwhRkhQTaPnmE3GxYcjwVj/TmejVtVmxrO/RRv5c7p+N95/vK/RqUE1o1q12ka96rnd1F1tfVbj8G/vGk/26WA0Dg4yatWqbdQuDoHphn4Or+IYXnF9mcbfI9sbNavUNgZMiczhM2Yz4pe/ZrQPDjIaD55jxBapy6s4Xls2I2rqA0a9KkFGg0dmXfodbosxZj1Uy6hW/T5j0okidbJEiq0i2vFFpLizcez32axJ9KbjkMcJ8bhwmhnvlk/x2G3unF0xmwUn7fmwuUQiDxwj0aclD747lXH35/ZsxdXVZzv6Oz+vScS74+MMbnbRQpi9W/LkkNsoFbeCnxecJB/26saxHeXP2atJ9O7E4MebcfHh8KbF04Np6x7HytkLOJUvpyuSiKOJ+LQYwDvTPuO+3J4zu+r6bCRGRnAssTQtBozkh8/uz/05jiLgxn4Or/wYXnl9Vs6cisFGFqeOn8R6yRrNlG7Thy6VnUjdsYndWde8UzdOsby2zAT2/5QfJ09m1tg+lMl+J2akkZxmA3NJPNx1myZSGOhKFCmM7DGsXbULi0cLunTwuXS6uQydujTFLX0ra9bFn1vkzDxeah9Ck4YNadygIU0aNqH9kz9y3BrD/Fc60vz83xs3bEizWwcxNcL23/pcm/DU9EX8Ne87/vdwM3xz+2a4ivrATsza1ezO9KB51/ZcupSZMp0609QtnW2r1xF/yfTCyx6zltW7LLi3vJ12OR6OTnQKcSN962rOHQ47Z+a9QKemDWnS4Pz5atyWp388jjXmT4Z1uPg83vbYFA5edLqeZsrixcyZOIKHmvnm+kV+5fX9uyUaD53GwiXz+Gbkw4T4ma742BQ+V/E5tJ/h1+c7XHwNtXmSn45bif3jFTpfdB7bMGTKQf47XVd6DK/mOilB28Gv8fD9j/P8fQ1xzWm1Zg/cS5kwMtJJL0JPLhfba8s1gIYdO1DPP/sTZXZiV37NT9utuDfvRBvvPB0mEbnOFJhECiPLHvZEZOFcpQ513HOawYxnnTpUdLIQsXv/ub94VKNFp850bl8PX0syKU6VuKVFDUqbPQhqdis13NNJSfegVtsudO58K7XLXMPN71XUB1mE744gy7kKdXJeCLNXHWpXdMJyYDcHMq++vBsta89uIrKcCapTh5wPhxd1alfEyRLBnv2ZgBmPai3p2LkL7er7YElOwblSc1rUKI3ZI4iQNjXwSEsmw6MWbTt3oXOb2lxLVrny+oqzq/gcmj2o1qojnTq3p75PJinJzlRs3oLq3mbcqzbj1poepCen41nrNjrf3plba/tx9afraq4TM94hD/G/0cPoWTPnQQLscVvZcdSKU1ANqrlcdXE33M1wbdmSThKx42/WLJrLxLcf5O6hsznu3pJn3+hLoO7SRAqFojhYjkjxlxlHXJKBqXYZ/Bz8g+ns54eP2c6p2Lhzf3BvxH1vN+I+MjkwaRAPjD5Iund53M0lqVzZlbNnXan/xBdMejVbt5EbVR+ZxMUmYZhq4+dwoTL4+Zqx74kjrgj1ycuMjSPZMFHbz8/Br1DO+Pn5YrbvIS723I65N+rPm436Q+Z+fnisPx8eTMervDvmklWo7BpPnGt9hnz5Ay83u+azdVX1FV9X8zl0p2H/t2nYHzL3T2bIfaM5lO5NeQ8zJStXxvVsHK71H+ezKa9m6556o+rLTRJhEyazPtWdZnf1JLgIdass9teWdSef97uXr/dd0JHS7M/tH3zEo3U0Qp5IYaHAJFII2S0WsgzIy8/UWZbsv1q6UfPRcXywry8vjBzGlMAHiXhtOrG3vMGPz+dDWLra+uyZWPK6kNVCpi332QoHOxZLFnnbsyws2XfMrRYDPx3Nvj7P8f6rPxA44ABvTIvhljdn82w+3NBdc33FzTV+Dt1qPcLHo/fS/7l3eW1yIA9EvM6MmOa8/vPz+RCWrr2+S1k4Ouc1Xp1+mBLNXuWNAUFF6P1ZN8G15VyLe98aRZkDyWRZUog9sp3Vi9ey5PU+PJ4wkS8GN8i55UpEbigFJpFCyOzhhYcLGAlnOWuAXw7z2OPjSTBMlPL0zGEFAXQd8RlPHRzIRwNegLJ38snHD1Mjx4cbblB9Zg+8zi1EfLwBZXJa6CwJCQamkp54FplvJzPuXh64YJAQH4+R844Rn5CAYSqFp+el/aHMAXfwv8+f5tDDHzLweQi481M+fLhGzs+iFEB9xco1fw7NBHQbwbihB3nkw4d4ibJ0/+wjHsq/iysfr5M09s18mSdHLOJs5XsZ++nj1C1SjRY3w7XlRpU2fXm4zX9/eeXl1Xw0+BkmjXmaD4LnM6qjHmQSKWjqHStSGLlUoWoFZ2zHIziYkfMsaQcPctLqRMWqQTnP4N6IBwfeiqcNqvYYSOdy+Xi5X1V9LlQJroCz7TgREQ4WSj3IwSgrThWDCCoygQlcgqpSwdnGiYgIct6zNA4ejMLqVJGgqjn/vu/eaAAP3eqJjarcObAL+Xq68qG+4iM/PofuNBwwkFvPXVw81LlcPv5jmk/Xie0Mqz98mIfeXkxC9Qf4eNoYelQqeuf2Zry2nALa8dIHj1CLSOZPX5R/xYrIVVNgEimMnGvSpLEPJG9h3dacHhROJWzdVtLMATQICcpxFbYTv/HOmHWUuy2EpOnD+XhdYv4N1X1V9TlTo2kjfEhmS+hWclwqbD3b0sz4NwqhShEKTM41m9LQB5I3r2NbTndNqRtZvzUNc0BDmuZ4h2sj8rf/8dG6crRtlsTM4WNZn5h/zxJde33FST58Dm2R/P72h6wr35aQpOm8+dE68u905UN9KXuYPrQvT03YSYn2w5n803t0r1Q0z2uxvLYsh1ny+Tu8N2UT8Q5Kca3RmHo+JixRx/KtVhG5egpMIoVSSVr36kJ5TrFk1iKyPytsP72AX5bGYa7clZ635NDHJiOcSa+MZF3lp/n42/G81zODmS8P5/cT+fV8ytXVV/LWXnQKhNOLf2JxzCULsfDnpcSZK3N7r1soUj2HSt5Kzy6BcGoxsxfFZAumdk7Pn8PyWDOVuvaiWQ47lhk+kWEjQqk0dBwTxn9Aj4wZDHv9NyLz7XRdW33FzbV9DjPZO/EV3ltXmafHfccXo3qSOf0V3vwtkvw7XVdfnzVyCe/dfz/vLkmm7pCvmf3dEJp6F+F/6ovhtWXZ9RMffTGNqR9+z+r0nFdrO32Qo4kGTv7l86lQEbkWRfhbVKR4K9l6EINaeBC/aBRvzzn638soLYf48fWxrEj25NYhjxFyyU1CIhs+eokv9jXghQ8GU6uEHx3fHM2DXit498Vv2OXgH+gbUl/J1gwa3AL3s4sY8+Ycjv63EIdmvM5Hy5PxbDuYR4vcXXtJWg0eRHOPsywe9Sa//LdjWA7O5I2xy0n2bMPgx5pdegOeuJ6PX/yc/Q1e5L3BtXHz68Tw0QPwXDGClyfsJH9O1zXUVxxdw+cwcf1YXv5sH/Vf/IDHarvh1+kN3n/Ii5UjXuTbnfl2cV1FfXYSt3zHk32HMi2iDD1GzWLam50J/LfRJY0t3z7LE8PncPDSN9sWYsXv2nKuGESlEmD2MGGPz+FkpB9g1nuT2JblQ9u7uuRLlSJybZxGjBgxoqCLEJEcmH2o26Q0+/6az7Ilq9mf7ow9Zid/jBvBVyujKXPHe3z5Wkt8zv/sYY/ZyIzxk/lt3mQm/LQLe7UmNKzbgKbB3lgjd7N91y7+Dl3K2h1RHNuzgzMedakbWOL86E6p7Pl1PN//tJgVK1exYfN2IqIzsaZGE/H3ataEbiXGuz51y7lddX3nF8KnXmNK7/2LBUuXsHpfGs62WHb+/invfrGSmDJ38O7Xw2jhU/R+yzH71KOxz14WzV/G0lX7SHe2E7vjdz4b8QWrosvQ9f2veaWVz/lfqezEbpjO1z/M49dJX/PzLjvVmjSmdsOmVPW2ErV7O7t3hrFu6Rp2Rh0lfMcZPOrWpXyJ82Nxpe7ht6++4+dFy1m1ej1btkUQnZlFavQBNq9azbotMXjXr8fFp+tK6vtP6u5f+fq72SxZtpLV6zezIyKaDGsqMfs3sWZVKFtjvGlVr9yNOcj55go/h/YYNk4fz5S5v/LD+NnsNqrRpFEd6ocE422NZM+2XewKC2XZ6h2cPLqHHWc8qVO3PP+eris+hld6ndg5vfgdHnlqApvPmijTsC31TBFsWLmK1f/8t2IJf/zyJ6E7zIQM6UGtIjS2R3G7tkwe1ajKZv5atoa/flnEzqg44s/GEn18P1uWz+art0cwZXMKgb3e49MXb6EoNxCKFBcmwzCK0Du/RW4+aQfmMeb1MfyyNQYLgGsAIf3fYNQbd1GtxH/zWTZ9SO+BEzmQdr6vicmV8v2+YvGHXcj8/Tm6vzKfmKzzl7uTJ42fn8VPz9U7N1Sm7ShTH+nN6LWJ5Pjjs5MnLYbNZeYTNa66vmwL8euo1xn78zZizi1EQLP+vD7mDXpVL8ptHGkcmDeKN0fPYdu5HcM1oBn3vTGG13tXu+AXcAubx/TisYn7+fd0uQXS96uljOqSyZ/PdWXYnzH8d7oa8+ysOTxT/1xzge3oFAbd9QGhiTk3FTh5teCVuTMYUiP7Mx15re8fNo5OeZR7319LzptywrPlq2z76Yk8H6FCJa+fQ8smxvZ8hEn70853uzPhGtiPL5aNoXPmH7xw+yssiDk3vDQ44dHkOWbOeY565y6uqz+Geb5OMgn9X1eenHGMjMs+nmPCrfpgflj4Bs3zaVC/G6e4XVtpHFw4gc++/pmVe6LJvOBOzDWgMd0Hvcqrg1tTtuiN0yFSLCkwiRQJmUTv30lEjAn/mg2oGVDYQsXV1ZcZvZ9dB2IwBdSifk3/4tMdLCOaA7sOEGMKoGb9mvg7Co4FpbDXd4MV9s9hYa/vhirsn90rrs9OWvRh9h+MIiHDjEfZqtSpXREPBSWRQkWBSURERERExAH1jBUREREREXFAgUlERERERMQBBSYREREREREHFJhEREREREQcUGASERERERFxQIFJRERERETEgexvXrthjh8/TkpySkFtXiRfZGSkczLqJIEVKlCiRGF7IYhkd/rUKeyGncDACgVdiuQiMzOTqMhIypUvR6lS7gVdjuQi+swZLFkWKlasVNClSC6ysrI4cfw4AWUD8PDwLOhyRK5JiRJuBFerdt23U2DvYXr04YGsXbOmIDYtIiIiIiJFXPXq1Vm0bOl1306BBaZtW7cRFxdbENdrjo0AACAASURBVJsWyTe///Ybfy1YSLW2d1CzY8+CLkdy8dfIoQB0e2d8AVciuTm+eQ17FsymTtd7CWrZsaDLkVwsfv957Darrq0iIPrAbrbMmkCDhg0Z+uwzBV2OyDXx8PCkZauW1307BdYlr0nTJgW1aZF8E3niBH8tWEi5uk2o2ko3dYVdCa/SeFcI0rkqAqyZGexZMJuglh11voqAkj5lcC3lrnNVBLh5eLJl1gTq1a9H5y5dCrockSJBgz6IiIiIiIg4oMAkIiIiIiLigAKTyDWwF8gTgCIiIiJyoygwiYiIiIiIOKDAJCIiIiIi4oACk4iIiIiIiAMKTCIiIiIiIg4oMImIiIiIiDigwCQiIiIiIuKAApOIiIiIiIgDCkwiIiIiIiIOKDCJiIiIiIg44FzQBYjIjZbK2fUz2bVsPXEJJkpVa0vtu/oTVLFUHpa1cnb+G4Qevo0OQ3vg6XTdi725WU4RtXwOBzZtJ/5sBk6+lfCpWJvAtr0IruGX8y9etgRi1//K/r+3EncqmkyLGVffKvg36krt2zvg636jd+JmZOHsX2+z8o+9WEs0oNGwd6ldPvvFYiMxbCp7d8VhN4xLV2Ey4+R7C7Xvaoe3rrPrxkg+wJFlv3FkeziJ8emYSwdT/rYBNOpYjxLnLzB75CwWj5iGpVY7/Etf5ndmkwtuNe8k5LaaN6Z4EblhFJhEbib2MxyZ8BTL5+/F4lQaT1+IDt/I4ZULaTRsAq2b+2O63OKn57F+ynyiSrmTaFNgup7sZ5YQ+t5b7D6YjNkjEG//klj3LOXU+j/Y/ct3BPQaSdcht198Dix72fHuk2zYHI3dyR33chUp5WYhcddCojb+zq7fb6fNiLHUC3IrsP26GdiPzWTNxPnEe1fEfDyUU1G2SwOT7SSHf/6UrXusDtdj8orEp0s7vD2vc8E3JRvJGz9l+ZfTOBmXBa6+eAf6Ydszn5OblhIVN4O77quNE2DEHCDm5FFSIo8SlctaneuXVmASKYYUmERuGlbifn2V5fMP4HzLa/R46QHKlYa0XT+w7P0v2PHR63iN+44GlXJOQfaEjWz6+FOOpxiY8tIYJVfPFsGOj4az+3AJKjzwDR36tcOrBICFtP0L2Pz1WHb/9hqLSgbQe2BjXACwk7bqKzZtjsZU/TF6jXyein6u59ZnOcPJ+e+zfNIS1n1Wl3KfPIGfwu71YTvGnm+/4ZSpBa0frkX4xwshhwYksGPYAbfOdJwxlmou2SabnXBydsWsjvPXgZ3Ude/wx5i5JLrUpNYzI2h1exNKuULmyueY/uFSolct4Wyf2vg7AW4lcMYJnz7TuHdAnUt+VMraN54FIyZztkxvOr7yUEHskIhcZ/oqFrlJGLF/EPbTZmzBj9H19UcoV9oVcKVUgyHcPvwBfNI2snn6X6TZL17OHjmf0HcHMGvQYLbszcBZP7Ncd7bwXwgPT8O54VN0HPBPWAJwpVStu2n7/mjqlMsi5o+JHEr474TZMtKwAybfIHx9XP9boWtZAnuPoGljN6wH1xEZm+0kSz6xkbR0DJu22yh3/3DqlsvLP7EmzC4lcSmR7T9XhaXrxYj5g7VfzSOxRAtajf2RTj3OhSUAp4BgvN1L4lG9Fu7nk5FT3Wfo8fnP3PlAU1yznSenxOWEjptKbMnbuPV/I6heTl+QIsWRvo5Fbgo2Elf+wokUb6r0eZTyF7UQmSnRcAiNQkqRHjaXgzEX30wbKVHEn0yiRMP+tP1gLHXLqmnierPHnSbNDraYSFJsl043ebamdutKmNJ3cSriny5dZjy7fchdI7/h7hfvplT2b3cjDUuGDcwlcSmpr/7rwYhdwPppa7DWHETbXjX0D2yhlMnp3yZyNMGdig+9S6PqFz/U51zvBfrO3cqAl7tecA2541WjLl7ZW9ZtUeyfMJqDceWo9ez71KvsiogUT/opRORmYI/lxObd2Eq2J7iZz6XTzWUIatUE5783cXxbAg3v8P13klPtJ+j5zRPn/idrC6E3qOSbmXPII7S8qzSpte/FP3tXLQDMuJYshcmIIyvzgv5eLgGUbRGQw/x20jZ9R/g+Ky6N2lPJ4zoVfjOzx3Bo0jiOpNSm6TuPUcYVcsi6UtAs24kIPYrdpxcNulQ+H2rt2G1mzFf0W5Cd1FVj2RiWgEfn92jdssxln/8UkaJNgUnkZmANJ+aYFXNgLfxyfP7IjFtwLTzN6zh78ADQ8gYXKBcyeTahwVNNHM9gP8vp/Uexm4PxrZTz17g99RQJkVGkxEYSt+1Xdi35m5SSzWk9+F481fSRz+xk/P05G1afxeeeT2ha6woG1TASiVv1DavC1hNzMgaL4Y5HcEtq9BxI7Xr+aqXKZ/aoTZyJtePSsgU+EdNYOet3og4fJiXNFffKtSnX/D6a9u3u4HvyApbtbP9pBeke7ejwcPt/R9QTkeJJgUnkZmA5S3qqAVX9KOngZ1Czty8lzHZSEuJubG1yxTJ3TmTntjRc6vWgRsUcfha37WbTK/ez5cgFI7CZ/Ql+dhQNg9VtKN+lrCfsu99JDexPj/tDyLFR0BHL32z7bDPOvtUoU6kCnrZo4tZNYtXaPzj02HjuuLfBla1PLsuIPU2qYYJ9nzN3w2msvvWo2KQHFV3iiQ/fxMFZr3Bsyz7u+OAFKjr8ZcFO6qpJ7Is0KH33YGr4Ky2JFHcKTCI3ASPLgs2AvPQZsWdZrns9cvVsJ39l5ceziHdrSssn7s/5HT1ONag9ZCSljiVjy0ol/eROjq1bx+HPHmBh8td0vaeebsLzTSpRM0ez90x5ao94hop5fc+VyRknZxO4BlHj8bG07d7g31aKrMj5hL77Fnt/GEZY9V9o00gvz8ov9rQUsuwGWXEJ+N7xMV2fvBOffwZVsUVzbOJTLP5tEiu+b8J9L3Ygx7ZCWxQHl60n06UpzXo20o2UyE1AP4uI3ARMJT1xdQaS48nIcYhjMJISyDRMOLvrAZfCKuvwbJYOf4fDiZWo9fxYGldz1FrkhnfTe2hw90Aa93uaVi98Q79vJtC4WirHJz1PaFjiDa27OMsK/47Q+cco1XEYLUK8876guTy1hk6g+0dT6dSjwUVdulwq9qDNCw/gYxxl76+LLxm5Uq6eqYQ7ziYwlb+HNheGJQCnAKo89g4NqphJWTObQ/E5H3j7qcUcCs/AqXYXgjUIjshNQT+MFHLWiD/56qdtpJi8aHr/s3SvltuXs5WIP77k5+3JmLxC6P/snQTn4fv8yrcjRYpLFUqXdcZ+6hDxFvAteeksWccPk2xzonSFKje+PsmFjdRNn7P4o0mcttag7qtfcdttFa7oFy+zXxtaPPsQJ174hogFS+nQos91q/bmYeHU0t85m2XCZdvHzBv88cWTsxJItqWS+lkvTrqZMLs3pNHwUdQNdALMlAi6lSAHa3ap0YUq5aex48BWYqz3UEU9KfOFycuHEibILFcN35yOqWttqjQJZPsfB4g5YgWf7DPZSdu2nhirCwEtOuKhn52LuRt4T2WNYP4XP7E9xYRXyP0MvbMauhMrPBSYCjnbibXMnjyHGFMgme2fysNFZyMydBZTfo7BFJhJu6fydnFf+XakSHGqTtmaPrB8Kyf2ZlKtafaOJqmc3L6dLLM/AXWCCqJCcSiVmD+Gs3jiUlJKt6f1iDE0qut9ae/KrCMc/nkmJz260axnSI4PoTtVaYi/l4n4MyduROE3ASd8Gt9BldP7ybLn0HSbnkVqbBouPmXxcDdjdvfHzcUE2EgO/ZhVf0QR+OB7NG2Uw/k0l8TZzYSRaNFoe/nIqXJtfEpAYkoiGQbkNLaDk4szkIE9xwamTM6E78VmrkBAbX+NjFfs3cB7KusJQmf9wC8xJspntucJBaZCRYFJ5KZQkoodOuCxfA5H/lpK88Y9LnpPjxG7iL0b4zCVG0CN+vopu9CwRXF44vOs+H0vplqP0PWNl6kakPPXti1iDhtnziTB5Qz+t4dQK4dWRHvsYRJSDExBZa9v3TcNJzzbvU73djlPte39iJ9fmU+5gRPpcMuF11Uap1f+zImdmSTXfJTGjZpccmNkP7ORk5FWzME18NVdU/4pGULFOqU4vGM5h44PwbdqtuvJdppTeyMxnBrhWzGHa812grgTKVDiFvyD9F0pcrNQYCrk3DqOZcORsVeyBB3G/k3ElSxyVduRosal0SM0brCQ0HVjWb2kAV3vqHKuS1fWYXZ/No6jqZ5UfnQg5XQPUCgYydvY/tFLhG1KwLPdCO54oS9+FzxvkbVnEivnHKfSY29Tp7Iz5rJBeLlBYgkTRpIVSmb7es+IYM+3UzljLU2VDp1u7M5INq74BlfFvG4/pKeQZQenC1sEU3ex48uJnLT4ULVbj5wH9pCrYy5P9W6d2LxtPru+/4lqIwbg++8IKOmcXTSWHeFZuLXoTbWAHJppbVGkxNoweZfFXd+VN4EbeE9VoiNjNh1mzJUtJTeIApPIzcKpKvWeeZXI10ZyZMKTLD49kGpVDOJWTWHn5kTcb32Ptnfk8FxMejj75/xJdEoWhj2WM4l2DPt2dn/3PodNYPaoS40+91BWA3nlGyN2GWvffp3dR1Ix+TQmwGM/eya9f+EcZB1ZxqHdydjbvU6dys6Y/Hpwy31/cmbqUlYOvZtD7bpSqXY1PEoZZJzcwbFlv3L0WAYe7d+nTSe1MF0/FuJDJ7N3VyzW+O2kGSmc+WsMaze7UaLO3TRuXxMXnPHr9RL1Q59h54Ln+eVUb+q0bUbpkqkkH9vB8ZULiTxt4HPHh7TpXF7dvvJZidYvcmu7LSxf+SG/D9tHg84t8HKKIXbTb4Svj8DqfwcdHr8r5+eT7ElkphmY/H0oqeeXRG4aCkwiNxGnSv3oMsqN9Z9/wt6fRnIEwMWfcj3H0GFIzr9k2+O3cuCPGZxIueCdPuzj8Px9AJjcb8G9fS/KuuvrJL/Yj2/k+Ml0AIz47UTM357zjK7BeJX556SVomz/b7m7wkT+nj2XYwvHc2zBf7M6+TakxqAXaXVPS9zVYnH92FOIWTuTnWti+eexpsz1szhrcqbEmarUvq0mLmbAszW3jpqI5+SP2L5qFmFbZ51fgRnnss2o98yLtOjeWC9EvR7M5anx4veYfN5lw8Jf+fvLuef+7lwav9bP0PKJJ6gS4OgiKYGTqwmzX3lK6ToSuWnoDkfkJuMSdBftPr2DZkd3c/asCfegevj65vi2EQDMgQPo+cuAG1ihODV9iwG/v3UVS5bCt+3z3NH2WbLOHiHuxEkyMsy4lgmiTFAFXHWDd/2Zfak5fC01h+c+q8knhEYv/0SDp6I4e+gIqRlOuPpXo0xQgN6Tdb25VqX64z9QfVASSYf3kWT1x7daFUq55pJQS3Smzcc/ElK6PiUuP6eIFCMKTCLXwFxk+8q44R4UgntQQdch14cZF99qlPOtVtCFSB6YS1WgTIMKlCnoQm5GTl541WiOV94XoFRQ4xxH1xOR4kuN/SIiIiIiIg4oMImIiIiIiDigwCQiIiIiIuKAApOIiIiIiIgDCkwiIiIiIiIOKDCJiIiIiIg4oMAkIiIiIiLigAKTiIiIiIiIAwpMIiIiIiIiDigwiYiIiIiIOKDAJCIiIiIi4oBzQW149arVnDp1sqA2L5IvVixfAcDRsFW4lChRwNVIbjKSEshI2k74Xz8XdCmSixNbNwAQ/tcc0hNiC7gayU1q7GlSQddWERBzcC8AYRvD+GnWrAKuRuTaeHt706179+u+HZNhGMZ130oOHn14IGvXrCmITYuIiIiISBFXvXp1Fi1bet23U2CBKTExkczMzILYtEi+ybJYSExKwtvbGxcXl4IuR3KRlJSEYbfjXbp0QZciubBarSQkJODl6Ymrm1tBlyO5SE5Oxma1UtrHp6BLkVzYbDbi4+Px9PDATT0jpIhzdnbG19f3um+nwAKTiIiIiIhIYadBH0RERERERBxQYBIREREREXFAgUlERERERMQBBSYREREREREHFJhEREREREQcUGASERERERFxQIFJRERERETEAQUmERERERERBxSYREREREREHFBgEhERERERcUCBSURERERExAEFJhEREREREQcUmERERERERBxQYBIREREREXFAgUlERERERMQBBSYREREREREHFJhEREREREQcUGASERERERFxQIFJRERERETEAQUmERERERERBxSYREREREREHFBgEhERERERcUCBSURERERExAEFJhEREREREQcUmERERERERBxQYBIREREREXFAgUlERERERMQBBSYREREREREHFJhEREREREQcUGASERERERFxQIFJRERERETEAQUmERERERERBxSYREREREREHFBgEhERERERcUCBSURERERExAEFJhEREREREQcUmERERERERBxQYBIREREREXFAgUlERERERMQBBSYREREREREHFJhEREREREQcUGASERERERFxQIFJRERERETEAQUmERERERERBxSYREREREREHFBgEhERERERcUCBSURERERExAEFJhEREREREQcUmERERERERBxQYBIREREREXFAgUlERERERMQBBSYREREREREHFJhEREREREQcUGASERERERFxQIFJRERERETEAQUmERERERERBxSYREREREREHFBgEhERERERccC5QLeeHs3hY3FYKEmZoCDKlMjDMtZ4jh88TZrJg3LVK1Ha6eo3b40/zqHTqZg8ylOtUmmuYVVFQnr0IY7HZWH2rkiNQA/g5jsGIiIiIiJXokBbmCzhE3n8zu706DGUGYeteVrGfuZXhvfsTo+eb7Eo4Vq2bid63jB6d+tO7zcXck2rKhIshE8cQq9u3Xn4s7/P/+1mOwYiIiIiIlem2HTJS1/wHE2rV6duj8/Yd1H2Smfhc42oXa0WvT/bS95imYiIiIiISEF3ybsK5jJ3MHxqLZLwoZr3BRMMO3arDbthYGRbxrAZWG127PbsU252Zvy6vcnk2klQujreuS8gIiIiInJTKXKBCbdA6rcOLOgqig23wAa00uEUEREREclR0QtMiZv5aeJyThDM7UP70shpD/O+mM+BgwewAPboMKZ//CFlyrXhmWan+WrBAQ4dyATsxIRNY9yHZSjbZiADb/XLZUOZRK7/hdnzVrBpfxRn0814la9J824PMLBfc8pe8ZG7gvXZY9kwYwqhZ7wI6T+IWwllxrczWLz5MIlmb8pWDaHbgEe4p1UF3LJvxh7HjnlTmDF/HfsiE7G6V6BB+/sYPKRzjlUlbZ7F98uPQ9WuPNWvMSUvmGY5Gca8mXNZuWUfx6OTsZjdKV+9Ka0630Wf3iH5V7OIiIiISCFV5AKTPWUnf377DWGm26j0aF8aldzH4u++Ybnl/AwxYfz8TRjO9Vx50jOc7ycs479Js/kuzJm6Lt0vH5iskSz83+O8OWsvyRf24ju4l+1rFzDvr2F8/+0Q6pfKY9FXuj4jnq2/fMu3eyrQP8DK1K/GsS7G9u9ih8K3sX7hL/w5bBo/PNXgvwCSvo8Zzz/GB0tOkfXv3IeJ2BHK8nXP8mzNS44mKTt+Z+KEMEy3VWLgBYEpZcsXDBn8OZvi7eDkhqe3O6a0Exw7uIeNi2Yyde4rTJz0FI2utWYRERERkUKs6A/6UKItz02awrfPtaQk4BR0L+9PnsL3795DibYv8N2UiTzTqiTgRJV7P+D7KZMZcW+Vy6wwk11fDmXYj3tJdi5P26GfMH3xBsL+XsaPHz9Jq7IQu3YsL48LIy1PBV7D+myn+G30p2zz6MRz4+exYtNWQhdN5rU7KuNiJPD3+E/49Yz9/MzpbP3yJUYtOYXVvTa935rIb2v/JmzdX0waeS8V9o9n7NwobNm3kRPrPqaOHM+meGeCeo9iXthOtm3dwtbwrSz5/lla+hqc3fAVn/wSiT37sldUs4iIiIhI4VbkWpguYQ6gXtsAghPn4ASY3CvQ6LZ21Dm/Z20Cgkmc4wxk4V6hMW3a1z2/0znftNujf+OLH3aSYS5L949+5tPeFf99N5Ffn9f4rroT9/UbT/jsiSx84hb6+F8+c17b+ixklurMqOlf07fi+aX8OzBkTAq7wp5nYfxWNmzKpH+PktjjFjNp5j4sJl86v/M9Y/tVOJ+G/Wk38ENquCfR+9UlnMWU6yG1nwplbbgFk18vXh55Pw3/GQ3C7EVw52d46d4F3D/xCBG7I8iiYrbWorzXLCIiIiJS2BX9FqZ8ZSd26UI2JIFzgwE817PiJS9yLdmwP72buEDy3ywPTbnO6zNTrttAelXMtpRnHWpVdgIyiItLBiDj71WEJRmYynSgT48K2U6smcAeD9G1fB5Pt1dbnvlyPF99+RxtLxk6zyAz04IBWCyWHBbOe80iIiIiIoVd0W9hyldZ7N2xDwsmSvu7ErVxHdGXzGPF5uGJiUQOhR+Eu5tex/U5EVynNi7ZFzF5U9rzfEuR3QrYOHXoGCkGOFWpRa2cHhAq0ZAmdd2YdTLj8ocAMHvXok23WgBkxh5ix4HDnDgRRVTUSSIPbmXV8kjsDluq8lqziIiIiEjhp8B0kSxi4xKwY3B22WgGLbvcvCbOxsRc5/U5UcrD/dJmQLMJ00V5xSAtI/3cJHcPPLM3YwHgho+vByZyD0xgI3bDJMZ8OJm/dpwh88KBKlx8CPT1wHQm1cGyea1ZRERERKTwU2C6iB27HcCEV8j9DOp0aRe6CzkHB9/g9TliwtP93HB1hsVCpp0cO1u6ubrk4QkmyNz+JYMHfc7uNCe8qt/GnR1uoV6NqgQFV6dWnSCiv+5Fv/ERV1mriIiIiEjRocB0ETf8/UtjIgajfGseffpO8jpy+I1ZnyNOlA0OwtO0jaSooxyzQlnX7PNkEh2T5GCoiwulsuqH6exJM+Hb5QPmTriPShd9SiycttkxHC0uIiIiIlKMaNCHi7jQ4JaGuGOQum09W3MaN9weycxBLWjWuCVD5+TWJS+/1+eYW7PWNHUHW9RaVuzKvHSGhFDWbHXUje4CttMcPpaEgTM1W7elQvZIbY9n3/7TeRueXERERESkiCskgcnAmp5CclKSw/9S0jIv2zpidjJjMoGRlkraRTOacXICEwZpaWm5tLCY8bu9H13LmbFHzeOjcaHEXrRAKnunj2D8ymgSzU25vf1lXn57XdZ3mS353c593ctjth1m9uhv2J50wcSMY/z5/sf8FZOHdiGTJ14eZsDGkR07SLxwmi2OLd8N4/PV50fzM9TOJCIiIiLFW+Hokmfdyzf3NuGby8ziXPNp5ix8lXoOppsCyuFvhsNHfuTFvhHUu6UPE97qCZgIKOuPmcMcnfkC/Q/Uo1nft3mjZ2DOK/LuxMvv3Mvm5+ew5/tHuXNDBzq3roUfMRzaGsqaLVGkO5Xl9jeG0yOXdzBdl/U55EX7l96g5/oX+X3z5zzcI4yuXZpQ1jjD7pWLWXfURJ36Vdi/+/jlV2MuQ4cebRi3bgVn/hjOw5YtdG3ohzX2CDtXLWLdYWfqh9QgcVMEKZtnMXZcOnc/czf1L/dwloiIiIhIEVU4AlM+cG10H4O7LmLkwhOc3LGGaGvjf6bQsP/j3L7oHf46EcXONWewNn4ecBCYMBPQbRRTXcsx8v3JrN6zlNl7lv63nYBmPPTGaIb1rnTZARyu3/ous6VyPRg1DUoP/4DZf2/g10kbzk1wLkPTwR/wVvkfuC+3wISZwH6jGHfseYZPCmPvwknsXXhuilu5Fjw47l1earmPt+9+mT+j1jD1G1fqPanAJCIiIiLFk8kwilO/KhvJJ49wMtWNMhUC8St1wV28LYmTh0+SWqIMFQLLUCovN/j2VCJ3bmbP0RiSbW74Vq5Do4bV8cvpPUd5kd/rc8hKXMRWdh2IIt7mRVDTVjSqWOqK+1+mRx8gfPd+jseDV+V6hDQJprTzP7sSxb69J8nyDaZOsB+XjDEhIiIiIlIMFLPAJCIiIiIikn8KyaAPIiIiIiIihY8Ck4iIiIiIiAMKTCIiIiIiIg4oMImIiIiIiDigwCQiIiIiIuKAApOIiIiIiIgDCkwiIiIiIiIOKDCJiIiIiIg4oMAkIiIiIiLigAKTiIiIiIiIA84FXYCI5CaFg0umM3XuWvbHmvCv244+jw6gQ3Cp67ZFa8RMXhsZTrsx79KrotN1qS8lYgkzpswldF8cJv+63NbvER7sGMz126sbJOUgS6f9wLy1+4kz+VO3fV8GDuhI1eu2Y1YiZrzK++HtGfXeXVTI9XRdQ33WCH585V3C249mZO+K5LapouCGfw6v8BheaX2ZJzfy2//bu8/4KMq9jeO/3TTSCSlAQkkISehdQJEOFgQLoiJio1oe2xEU4XBEmggW9CgeRQVFBURFFJUqNaiUUAOk0FsakJCQZJPszvMCjiDsHiAsaVzfz4cXZKf8Z+65Z+eatrPnszJuL+n57gTXqkOdBm24/Z7baBRUzr/yK1rfsmayc/E8Fvy2kV0H0jhlMeMTEk6jG2+nz33dqOvn7OURkeIyGYZhlHYRIuKALYWlYwYyfNZOclwDCAsxSDuSSZFfYwZM/ZSXuwQ7/zKx9RBzBvVi9CofHpy1nLHtPJxcn42UJa8x5MVZ7Mx2JaBGCEbqETKL/Gg0aCrTX+lMcDm99m1LWcK4gcP4Mj4b14Awgo00jmYW4dd4IG9/+gqdQpy/YNZDXzOk5z9Z49OPmb+N56b/2VxXU5+VQ18P4u5Rq/F+6AuWjm/H/5hVOVAa2+GVrMMrrc/KkV/H8NTLXxF/yhW/sNpU98wn/UgKJ/KKcAloRv+J/+aV22uUyzOlFa5v5e9k5hMDmLQylSJXH6rWrEmwp4Xjhw9z7FQBHjVv55+fvMODMeW7l4lUGIaIlFGFRsJHDxjNwiONGx//xIhLtxiGYTHS/vzAeLhFHaNu0/7G58lFzp1lUbqx7s37jJbh4UZkRDtjkK9wNQAAIABJREFU9Np8p9dXuPtj48HGEUb0DQOMTzelGxbDMCypfxrT+rU0osKbGY/MTDacvFQlo3C3Mf3+xkbdOq2NQdPjjAyLYRiWNGP9+w8ZN0REGC0fmmnscXpzxRpv92lm1K0dbkTdNMqI/Z/NdTX1FRkZsW8ZDzSNMCJr1zHaj1pr/K9ZlQclvx1e2Tq80voKE/5jPNAg3Ihq0dd4e/lBI/e/H1jSjC3fjDZ6N40wImN6Gm9tyr14ZmVdhetbViPjm8FG09rhRv07JhrrUi3nPso/Zvw5fYjRMTLcaHj3B0ZCoXOXS0SKR4FJpIyyHvvGGNo0wqjfY5KxMftvnxiZsWOMWyPrGK2fWmCkW50ws6I9xo9jhxgPdGpsRNeuazSMibpkYCpWfdZjxrxBzYy60T2MyRuy/z69zFjjta51jaiWTxs/pjljoUqS1Tg2d7DRMjza6DVpg/H31ZFprHu1mxET0cp45oc0wznNtcAYP+Q+o2vjSCMysp7RsO6lDuqKW1+RsfeHscYTfTobzeqEGzEx9Yx6FSEwleh2WIx1eMX1WYz1r3UyomvXM/rPPGxnG7MaJ5e/bHSqE240GzTPyChX3asi9i2rceTzfkbD2uFG48dmX7wPt6Ybsx+OMSLrPmB8eqhcNZZIhVVOb3wRqeisHFgwl9VZ/nQZPISWPud/Zsa/7ZMM6ODNid/m8vNRmxNml8XhxANkBbTlobGf8/aDl3q2onj1Wfcv4JvVWfh3GcKgVn8bCbN/W54Y3AGv47/xzc9HccJSlRzrfn6au4os/64MGtKKv68Of9o8NYj23sdZMfdnjjmluQ6TtD+LgDb9efWLqTxwqefMil2flazDSRzIqkyb/q8xY+qDl36Ooxwo2e3wytfhlddXROqxdKwUcuzgUYoumqKZyjf3oXstF05v3cCOwqteqJJTIfuWmdC+7/D1Z58xe3Ifgi48EjNyyc61gtkTH28dpomUBeqJImWRLZ01K7dT4NOG7p0DLv7cHETX7i3wyItjdezJM6Okfs8/OrWkeZMmNGvchOZNmtPpia85WJTOwmFdaH32782aNKFVu4F8nmQ9Nz335jw5axG/fv8x/3qkFVUutWcoRn1gI33NKnZYfGh9aycuHstMUNdutPDIY/OqWE5e9HnZZUtfw6rtBXi3vYWOdldHV7q29CAvbhVnVoeN1O+fp2uLJjRvfLa9mrXnqa8PUpT+Ey91/ns7dhgwk+S/NddTzFy8mHnTx/BwqyqX3JFfeX1/zYlmT3/BL0u+5z+vPULLQNMVr5uypxjboS2V+c91/nsfuvkJ5hwsIuPHYXT7WzvezOCZyZxrritdh8XpJ5VoP+hlHnlwCM890AR3e5M1++DtZcLIzyOvHD25XGH7lnsITbp0pmHwhU+U2chYMY05W4rwbt2Vm/0vazWJyDWmwCRSFhXEE59UiGvt+tT3tjeAGd/69anhUkDSjoQzf/GJpE3XbnTr1JAqBdnkuNTkhjZRVDb7EN6qHVHeeeTk+RDTvjvdurWjXtBVHPwWoz4oZOeOJApda1Pf/kiY/epTr4YLBYk7SLQUv7ySVhi/g6RCV8Lr18f+6vCjfr0auBQkEZ9gAcz4RLalS7fudGwUQEF2Dq41W9MmqjJmn3Ba3hyFT242+T4xtO/WnW431+NqssqV11eRFWM7NPsQeWMXunbrRKMACznZrtRo3Ya6/ma8I1rRLtqHvOw8fGM60O2WbrSrF0jxm6s4/cSMf8uH+dfrL9Er2v5LAmzH49i6vwiX8Cgi3YpdXIm7HvqW9dRRkrauZ/Wi75g++iHueXouB73b8szI+wjVUZpImVAeX5YjUvFZjnP8lIGpXhCBDr4wXQMDCTDbOJZx/MwfvJvywOimPICFxE8H0u/1ZPL8q+Nt9qRWLXdOnHCn0dD3+HT4BbeNlFR9WDiecQrDVI9AhyMFEVjFjC3+OMfL0T15lozjZBsm6gUGOjgL5UpgYBXMtniOZ5xZMO+mfRnVtC9YEpgxoC9vJOfhV90bs2dtarmf5Lh7Iwb/ewYvtrrq1ipWfRVXcbZDb5r0HU2TvmBJ+IzBD7zOnjx/qvuY8axVC/cTx3FvNISpM4dfcHtqSdV3Kaf488PPWHfam1Z39aJOObqtssL3raJtvHv/vUzbfd6NlOZgbpkwhcfr6w15ImWFApNIGWQrKKDQgMs5TV1YcOFZSw+iH3+bCbvv4/nXXmJm6EMkvTyLjBtG8vVzTghLxa3PZqHgckcqKsBivfRgZYONgoJCLm/JCim4cME8Ynj0ndfZ3edZxg+fQWj/REZ+kc4No+byjBMO6K66vormKrdDj5jHePP1XfR9diwvfxZKv6QRfJnemhHfPOeEsHT19V2sgP3zXmb4rL1UajWckf3Dy9HvZ10Hfcs1hnv/OZGgxGwKC3LI2LeFVYvXsGREH4ZkTue9QY3tX7kSkRKlwCRSBpl9/PBxAyPzBCcMCLQzjO3kSTINE16+vnYmEMKtY6byZPKjTOn/PFS9g7fefIQouw83lFB9Zh/8zozEyZMGBNkb6QSZmQYmT198y83eyYy3nw9uGGSePIlhf8E4mZmJYfLC1/fi+6HMIbfxr3efYs8jb/DocxByxzu88UiU/WdRSqG+CuWqt0MzIbeP4e2nk3nsjYf5B1XpMXUKDzuvczmxn+Sy+6sXeWLMIk7UupfJ7wyhQbm6aHE99C0Pat98H4/cfO4vw15cxZRB/8enk55iQp2FTOyiB5lESpvujhUpi9xqExHmivVgEsn59gfJTU7maJELNSLC7Q/g3ZSHHm2HrxUiej5Kt2pO7O7Fqs+N2nXCcLUeJCnJwUink0k+UoRLjXDCy01gArfwCMJcrRxKSsL+kuWSnHyEIpcahEfYP7/v3bQ/D7fzxUoEdzzaHac2lxPqqzicsR1606T/o7Q707l4uFs1J36ZOqmfWFNZ9cYjPDx6MZl1+/HmF5PoWbP8te312LdcQjryjwmPEcNhFs5a5LxiRaTYFJhEyiLXaJo3C4DsTcTG2XtQ+DR/xsaRaw6hcctwu5OwHvqBVyfFUq1DS07NeoU3Y7Oc96ruYtXnSlSLpgSQzaa1cdgd6891bM41E9y0JbXLUWByjW5BkwDI3hjLZntHTaf/YF1cLuaQJrSwe4Rr5fAP/2JKbDXatzrFV69MZl2W854luvr6KhInbIfWwywY/Qax1dvT8tQsRk2JxXnN5YT6cuKZ9fR9PPnhNip1eoXP5oyjR83y2a4Vsm8V7GXJu68ybuYGTjooxT2qGQ0DTBQcOeC0WkWk+BSYRMokT266szvVOcaS2Yu48FlhW8rPfLv0OOZat9LrBjv32OTv5NNhrxFb6yne/OgDxvXK56sXX2HBIWc9n1K8+jzb3UnXUEhZPIfF6ReNxC/fLOW4uRa33HkD5erOIc929OoeCscWM3dR+gXB1EbKwnkszzBT89Y7aWVnwSw7p/PSmLXUfPptPvxgAj3zv+SlET9w2GnNdXX1VTRXtx1a2DV9GONia/HU2x/z3sReWGYNY9QPh3FecxW/vqLDSxj34IOMXZJNg8HTmPvxYFr4l+Ov+grYtwq2z2HKe1/w+RufsCrP/mStKcnszzJwCa7upEJF5GqU472oSMXmedNABrbx4eSiiYyet//cj1EW7OHrEZP5LduXdoMH0PKig4Qsfp/yD97b3ZjnJwwiplIgXUa9zkN+vzH2hf+w3cEXdInU53kTAwe1wfvEIiaNmsf+cyOx58sRTFmejW/7QTxe7o7aPblx0EBa+5xg8cRRfHtuwShI/oqRk5eT7Xszgwa0uvgAPGsdb77wLgmNX2DcoHp4BHblldf74/vbGF78cBvOaa6rqK8iuortMGvdZF6cuptGL0xgQD0PAruOZPzDfqwY8wIfbXNa5ypGfTayNn3ME/c9zRdJQfScOJsvRnUj9K+LLrls+ugZhr4yj+SLf9m2DKt4fcu1Rjg1K4HZx4TtpJ3GyEtk9rhP2VwYQPu7ujulShG5Oi5jxowZU9pFiIgd5gAaNK/M7l8XsmzJKhLyXLGlb+PHt8fw/oo0gm4bx79fbkvA2dMetvQ/+PKDz/jh+8/4cM52bJHNadKgMS3q+FN0eAdbtm9n/dqlrNl6hAPxW0n1aUCD0Epn3+50mvj5H/DJnMX8tmIlv2/cQlKahaLTaSStX8XqtXGk+zeiQTWPYtd3diQCGjaj8q5f+XnpElbtzsXVmsG2Be8w9r0VpAfdxthpL9EmoPydyzEHNKRZwC4WLVzG0pW7yXO1kbF1AVPHvMfKtCBuHT+NYTcGnD1LZSPj91lMm/E98z+dxjfbbUQ2b0a9Ji2I8C/iyI4t7Nj2J7FLV7PtyH52bk3Fp0EDqlc6+y6u0/H88P7HfLNoOStXrWPT5iTSLIWcTktk48pVxG5Kx79RQ/7eXFdS3zmnd8xn2sdzWbJsBavWbWRrUhr5RadJT9jA6pVriUv358aG1UpmJTvNFW6HtnT+mPUBM7+bz4wP5rLDiKR50/o0alkH/6LDxG/ezvY/17Js1VaO7o9na6ov9RtU56/muuJ1eKX9xEbK4ld57MkP2XjCRFCT9jQ0JfH7ipWs+u+/35bw47c/sXarmZaDexJTjt7tUdH6lsknkgg28uuy1fz67SK2HTnOyRMZpB1MYNPyubw/egwzN+YQeuc43nnhBsrzBUKRisJkGEY5+s1vketPbuL3TBoxiW/j0ikAcA+hZd+RTBx5F5GVzg1XsOEN7n50Oom5Z+81MblT/f73WfxGdywLnqXHsIWkF57t7i6+NHtuNnOebXjmVZnW/Xz+2N28viYLuyefXXxp89J3fDU0qtj1XTAS8yeOYPI3m0k/MxIhrfoyYtJI7qxbnq9x5JL4/URGvT6PzWcWDPeQVjwwchIj7o487wx4ARsn3cmA6Qn81Vweodz3/lImdrfw07O38tJP6ZxrrmY8M3se/9fozOUC6/6ZDLxrAmuz7F8qcPFrw7DvvmRw1IXPdFxuff9lZf/Mx7l3/Brsz8oF37bD2Txn6GWvoTLlcrfDgg1M7vUYnybknr3tzoR76P28t2wS3Sw/8vwtw/g5/czrpcEFn+bP8tW8Z2l4pnMVfx1edj+xsPZft/LElwfI/5+P55jwqDuIGb+MpLWTXupXcipa38ol+ZcPmTrtG1bEp2E570jMPaQZPQYOZ/igm6ha/t7TIVIhKTCJlAsW0hK2kZRuIji6MdEhZS1UFK8+S1oC2xPTMYXE0Cg6uOLcDpafRuL2RNJNIUQ3iibYUXAsLWW9vhJW1rfDsl5fiSrr2+4V12cjN20vCclHyMw341M1gvr1auCjoCRSpigwiYiIiIiIOKA7Y0VERERERBxQYBIREREREXFAgUlERERERMQBBSYREREREREHFJhEREREREQcUGASERERERFxQIFJRERERETEgQt/qrrEPP3Ek8TGxpbW7EWcorCgAIvFgru7O+4e1/XPSZYLuadPA+Dl7V3KlcilqG+VL3m5uRiGob5VDqhvSUVSt24k386ff83nU2qBqX2H9oSGhZbW7EWcYuVvK9i3bx+ewaHUbt2xtMuRS9g2/3MA6nTrXcqVyKUc27GR9KR4PIOqU7tNp9IuRy5Bfav8OLE/icOb1+Hh4UGf++8r7XJErkpwcHCJzKfUAlPffv1Ka9YiThMWFsb4seNo1PNBmt7zSGmXI5eQuHwB/mHh3Dx0RGmXIpeQtPIXlk56kZsGv0TEjV1Kuxy5hD1rFuPu5a2+VQ4c3b6Bw5vXcUevnowaPbq0yxEpF/QMk4iIiIiIiAMKTCIiIiIiIg4oMImIiIiIiDigwCQiIiIiIuKAApOIiIiIiIgDCkwiIiIiIiIOKDCJiIiIiIg4oMAkIiIiIiLigAKTiIiIiIiIAwpMIiIiIiIiDigwiYiIiIiIOKDAJCIiIiIi4oBraRcgIqXAlsXxP34gIfYP0o8ep9A1kIBGt9G4dy9CfM+eR7HuY8eEp9iW04RaUYGOz66YTJh9GhN1920EViqpBbgOFSazc+potu/Jwy36Ubo+dw/+LhcMYz3E/vnfcjSzEAw70zBXwrvxPTRuXVNny5yugOxtC9i5fDWph9MpcgvGr0YEQY1vJfrmhnhd2FYAWMnfs4zdy1dybN8hTudYMHsG4x/Vhjq39iailm9JL8T1JXcP+36axe64RPJMQQS16k2Tnp2ofDn7MWsyO956nYwbxtKhc5j6k0gFp8Akcp2xpa/gzylj2LotDZvJA8/qtfAs2kTS9lXs3ZLKPZOHEOQGWFM4nnyQzLT9ZG67xEQ9WlHp5u4E1rB7VChXrYgTP45l3Yo9VKrqyslNcWRZLw5MtrSlxM34mBSro+m4UCmlDjGta6Js60TWI+z58FlW/LyTAhc/fEKr4WaJY+/2ZSQu/Iy4mH50HPkSkVXP/8q1kDH/GX7+ZA2nra64BdbAL6ASBUc3krZtBQk/fUmdoR/Q7Y5ofVFfA0bGcta8OoIde3Iw+4XiZewgZcsyklY9SrfXhlO7yv+KQFZOLZ7Cnyv+wM3zIEbnsBKrW0RKh/bDItcR4/hSVo0Yxq6j7gR2f5WOj/emWhV3OL2QRQ8PZ2/iL+w5MICguq5gqoSruwlTrQHcPfX/CLrw+CFvKxtHP83mAyHU+8ckmigsXTO2o3OJnb0Jmg6nTcQ8lq+yfwEJwwaA600TeeSl27iwRUxmN1zcXTFd64KvK0Wc+P5lflu4G9cmT3LHPwZTu5onANaT20j6egKxC2exfJw33m8+R7WzSdXI/IX1s9Zw2tyQZhOn0aZpyNn2KiBn+9esefMt9n78L7Y2/JKW4fqqdiprIlvfeIUd+zypPWQ6nXs1w4t0jn73Mou/+JxlU8LoPb4/AQ6uCuZu+YDlM9ZgMUy4lXTtIlIqdBVZ5HphO0bCtLHsOupF2IDP6f1i3zNhCcAtlIBQX1xDGhAUeHa34NacG8bPpc/Yp6ju5YlbpfP+uZ1g339GsXWvF7WHvk/Hjrol5ZqxHmH3Rx9w2NaClkPvx/dyVrTJDZdKF7RZJU9cFZacr3ALO3/dQqFHa1oN+7+/whKAS0AT6j35EV1vrYE1+Svi1hw/N15BLoVWwCWIyrWCzgu37vg0foSOD7TBxbKTQ3Gp9sOxFJONnOXvsmmHhaA+U+neuxleboBbMKH3v0P3XnUo3Pof1q/OuGC9W8lcMYlfh/Xk65EfklrgoX2eyHVE/V3kOlG0exab/ziOe7On6dS7wd/PjLq3oM376xkyYyKRAed2C+7VGhJczfuCKVk5tWwCsavT8On6Kp17RF50JUOcxUbOysms35BPSJ+RNNGVhrLHmkrOSSsUppCVVnTx5+bK1OzeDT/zadJ2xP/1Z1PIfXSb/CF3vDmeegEXfhUbFObmYWDG1ctLIdeZrAdIWrQWi08nmvVpgfv5n5n9Cbv/MWpWOsGBxYvIsf1tRCypyWRlVya05z/p+dJ9l3fyQkQqBH37ilwXCkhZsYRMWxDRvc49+2JYrZhcrizuGMd/Zt3MleQH3U2nwV3w0kHDNWOcWMLvM5ZhqTOU2/vUx4WC0i5JLuR+M00H9KdSRlMaRLvbHcTk5Y2bySDPkn/+iHjHdOLC0xEAxsnVxP2yDZtnG8Jb+F+Tsq9XxslYDiYV4N66G7X8Lv7cFNCZiAYeHNi+hkOn+tOg8n8/cadq30/o2/fM/6w7JpVUySJSBigwiVwPrPs5tisVw7MzYbXi2Tr1IxK27iYzLRuXoLoE1e9Ig76DiAq3d/h2Pgsp333E/kx/aj//DOF+SkvXjO0k+z+fQnJWJE1HDKKq/WNxu4zsRJJmv8qBuHgyT+SAZ3UCm99O43t6U72KdvtOZfaneq9RVHc4gI28XdvIsroQUKuO/UGs2WQf3k92egqn9v9OwoLvOZLhTdig4dQPUR9zJuuenZwocsW/Tgx2u5TZl8CIMExxyWTsL4BmV9DxRKTC0jenyPXAmkLOCRsYW1n//G/kFAQR3OxGopq7kX9wC0dX/4elG9aSMXo6bZtVdngLkHH8ZzYv2YcR9ijNO1fXrULXkCXuPdYtS8O/53RaNvK6onGt26azcocnXjVjCKgWhi0jkX3zXmXv8iW0ffVdmsVcKhiL0+SsJ27+7xR6tiCqU4SdAYpIm9Wf7+ckcu4OMDNe7V6l890xut3VyayZJ7AYJgL9Ax3sv1zxrByAyXaM3EyHr5sUkeuMApPI9cCWQ0G+DfLSyA+/j+6jRhBV878H4UWcXj+Fnyd+wZa336T6tPGE+9ibiJVTq3/gcI471fv1u6IrHnKFctez4aPvyA7pze392+JxmaOZXFwxm8ClRk/aDR9Jw5iAsweFeWSumMCv73zHH1PeJejfI6nheYmJydUrPMDud0aw43Alqj02gkah9uKPK1VueZmOVZIpKCygMPMAqRuWcSj2X8wfk8XtIx8jRG3lJDashYUAl3Gypwhbge2SQ4nI9UHX+kWuB2ZP3DxMYK5JvSdeOS8sAbji3fpFOt4ZhSntV+LXZtifhvUge1Zvoci9KXXa6a14104eKXNfJ/5IMFGDn+NKfrvUFHwPHcZO4+43JtHor7AE4EnlzqPo1CsSDn/PtvPf1ibXRn4C8ZMGsjL2JH7dXqNbn/oOrxa5ht5E/Tsfoem9g2g1cBx3fLCAHvfWo2DjWyz+aCX5DsaTK2XGzdsbMwb5p046ePugjfzsLDB54e6tc8oicob2BmVZURIL35vDlhwTfi0f5Ok7LudtZEUk/fhvvtmSjcmvJX2fuYM6l3FPR1HST7w/ZzM5Jj9aPPgMPSJ1I0iFYgrA08cM2TUIqGXveoU7QTfciM+3X3I8KRFuC7poCOPk7xzeU4g5uhPhwYpL10zBJnYvT8Rq8ubwJ/34+pO/f2w9dRRbXjorn9iAq8kF93qPc8s/+px5kYfZnyotOjuYsCch7TrgN/9z0uJ3wC0dr/WSXLdsx1fz54SX2bKrkCo93uD2p2/D70p2qS4h1HpsDE3i+rJp5Rz2PtaBBpXV55zBJTQCX5dlnDq4Byt17Zz4yeXkwSPYzBH4h+l7UErwmKpYx3xSUhSYyrKiQ6ydPYNv001Ut3Ri6GV1HiuH185m5jfpmEItdHzy8jq39dAa5n42j3RTKJZOTyowVTRukQTV8oSjp7BkG1DF3jBuuABWq/379ot2bya90AXf6KZ469jt2nGJoEb7jpzal4tx0Slwg0JrOjkWLzyDquFhdsW9ih9mE2A9yp5PX2VHaitaPT+YMDvvPDZV8sTVZJBXqLftXSsFyV/x2/g32JsRRO1B0+h6T3MqXdQUBWTGTmfbdn+i+vWjur2Xp7jVpWrdynDwKKdSbaDA5BTm2s2o6g8J8etIKbiVmhfeWpy3gcO78jBVaUS1UB0iSQkeUxXrmE9KivYGItcFb6o1b4pb7Hr2rd1Di9rRF5xZtZITv5VTNleq1rb3Jq8iTu3bS6FRibCoKO3EryWXMOoOnUZdux8WkPLJPfywogVtxo+j9vkHe/lxJP2yliMFRwi+93HCGlx4JGgle8sGMq2uBIXbn7pcjSKy101m0VtfkmFuQtN/vs2NbUPt37paGM/OGR+y47A7p6PuoXpXOy/hsKZw8mgWuEThHaiw5DSV2hLVtjoJvy5jZ+wz1OgcdN6tqzZyVn/H/kwzfnfdQaie0xSRsxSYyrJKXZi0YS9X9msPHnSevJ6kyVc2K48uk/l93xWOJOWIGd+O9xPx9e8kLphMfPtpNK517mig8MC3rPs+DqtvJ2La23tBspXstFRs5ip4B17uKwikRLlFE1TTjb17DQpzT2Pg/rcH2y0JM1k1dyNF/l1o0Ll2qZVZIdmySPn+ZZbMWE1+tR50/OdYGkSc95xgfhyb3/mErJYv0umWSHAJw7+aBxz1wmTLxIb3BcEqjxO/TGLrriIqtelJRBUFJufxJKz3Y4SufJ2908ewK2YqDc5eSbIemsPKz1Zi8b6Ztne30IkhoUSPqYp1zCclRYFJ5Hrh2402Q3pwdMpCYl96lIw77yasugun96wm4ZdlnLBUJ/KFEcQE2Ts4s2LJyQFTNTyv6GEMcYrCfez5dh5HT1rI23Uc4/RWdn48noPulanWfSBREZ7gEk2jx/ux57XPiR93P6e69yGycQRuuUc4sXsNSSt/5xR1qD98FDF6Bs15bKnsnTaU5T8nUGgKolq0Hxm/vM3q84fJT2Dfmo1YinqcCUzmEKIfHkLi7nfZ+05v5q7pQd2WTQgI8sHIPkjqnz+w+89kioLvoPPQu/BRczmVucYDdBj8Owv+vZy1o5/n1D23UYVEkr/7goPZIdR5YTT1q128nytM/pHNv23DUghG5hbyDQNj12xiP1gOJlc86vagzS1NSmGJRORaU2ASuW6Y8e00gTvNQaz69Bt2fzGGXQC44RHRjRseH0HL1g5uIQJc3T3ALQSfQAWmkmacjmfPj1+SfLLw7F+y2LcwCVwCyK7Zm7oRnpiASi1eoteE6vz+yWckL5zKoYVnBzd74dvoATo8/hwN6wfo97OcqSiZw5sOUGQARgYpK2aTYm84kwcB1ar+9V+3mKH0fDucuC+ms2v9XDasn3NuWLdgQjoPo+2Ax6ih/nYNuBNw+5vc6TaFFZ99R9z7ywEwV2lBo+HjuKlzTTv7QSu58T+yfUEslvMf89y7lB17AVxwbxKswCRSQSkwiVxX3Knc4WXu6vAilpQEMlIL8apdn8qVPS5xEO1FxJOz6P1gICFX8JprcQ5T5Z7cMrsnt1xySDNejR6l69T+tE9NJONQGoUufvjUqkdgoH7M55pwb0eHGZvpUIxR3WrdSpt/3krr/HRO7ttLzqk8TF5VqRwZja+XgtK15UWVbq9yb4cnOZ6YTK4pmMCoKLwcPrfkgv9dnzDwrpKsUUTKCgUmkeuSKx7VGhIgLZnOAAACoElEQVRW7fLHMFeOplrla1eROJML7lXrE1q1fmkXIpfBVCmYKvWD7b68Uq4x9xACG4UQWNp1iEiZpjujRUREREREHFBgEhERERERcUCBSURERERExAEFJhEREREREQcUmERERERERBxQYBIREREREXFAgUlERERERMQBBSYREREREREHFJhEREREREQcUGASERERERFxQIFJRERERETEAdfSmnFqaip5ubmlNXsRp0hJSQHgdEYKmUf2l24xckmF+fmcSjmstioHstOPAZB19IDaqxwozM/Fkp2ltioHTqUcBiAjPYP9+/aVcjUiV8fd3Z3QsLBrPh+TYRjGNZ+LHY8/8ihrVq8ujVmLiIiIiEg5V7duXRYtW3rN51NqgenPP/4gLTWtNGYt4jTZOdkkJSQSHRODj49PaZcjl5CcnIzVaiUmJqa0S5FLyMvNZdeuXdSpG0ll/8qlXY5cwr59+8jLzaVBw4alXYpcgsViIX7HDmqHhxMYGFja5YhcFV9fXzp16XzN51NqgUlERERERKSs00sfREREREREHFBgEhERERERcUCBSURERERExAEFJhEREREREQcUmERERERERBxQYBIREREREXFAgUlERERERMQBBSYREREREREHFJhEREREREQcUGASERERERFxQIFJRERERETEAQUmERERERERBxSYREREREREHFBgEhERERERcUCBSURERERExAEFJhEREREREQcUmERERERERBxQYBIREREREXFAgUlERERERMQBBSYREREREREHFJhEREREREQcUGASERERERFxQIFJRERERETEAQUmERERERERBxSYREREREREHFBgEhERERERcUCBSURERERExAEFJhEREREREQcUmERERERERBz4f+3maeR4iZU/AAAAAElFTkSuQmCC;" vertex="1" parent="1">
                    <mxGeometry x="240" y="220" width="300" height="112.5" as="geometry"/>
                </mxCell>
            </root>
        </mxGraphModel>
    </diagram>
</mxfile>